<svg id="Capa_1" enable-background="new 0 0 512 512" height="512" viewBox="0 0 512 512" width="512" xmlns="http://www.w3.org/2000/svg"><g><path d="m120.82 512h-12.697c-5.69 0-10.302-4.612-10.302-10.302v-22.999h33.301v22.999c0 5.69-4.612 10.302-10.302 10.302z" fill="#524798"/><path d="m391.18 512h12.697c5.69 0 10.302-4.612 10.302-10.302v-22.999h-33.301v22.999c0 5.69 4.612 10.302 10.302 10.302z" fill="#524798"/><path d="m239.35 14.569h33.301v316.358h-33.301z" fill="#b78e8e" transform="matrix(0 1 -1 0 428.748 -83.252)"/><path d="m235.187 156.098v-79.195c0-5.69 4.612-10.302 10.302-10.302h21.022c5.69 0 10.302 4.612 10.302 10.302v79.194h-41.626z" fill="#fb636f"/><path d="m276.813 156.098v-66.707c0-5.69 4.612-10.302 10.302-10.302h12.697c5.69 0 10.302 4.612 10.302 10.302v66.706h-33.301z" fill="#9dc6fb"/><path d="m343.415 156.098v-62.544c0-5.69 4.612-10.302 10.302-10.302h12.697c5.69 0 10.302 4.612 10.302 10.302v62.544z" fill="#e49824"/><path d="m310.114 156.098v-79.195c0-5.69 4.612-10.302 10.302-10.302h12.697c5.69 0 10.302 4.612 10.302 10.302v79.194h-33.301z" fill="#95d6a4"/><path d="m235.187 156.098v-66.707c0-5.69-4.612-10.302-10.302-10.302h-12.697c-5.69 0-10.302 4.612-10.302 10.302v66.706h33.301z" fill="#9dc6fb"/><path d="m168.585 156.098v-62.544c0-5.69-4.612-10.302-10.302-10.302h-12.697c-5.69 0-10.302 4.612-10.302 10.302v62.544z" fill="#ffd064"/><path d="m201.886 156.098v-79.195c0-5.69-4.612-10.302-10.302-10.302h-12.697c-5.69 0-10.302 4.612-10.302 10.302v79.194h33.301z" fill="#5e54ac"/><path d="m272.65 312.195v-66.706c0-5.69 4.612-10.302 10.302-10.302h12.697c5.69 0 10.302 4.612 10.302 10.302v66.706z" fill="#a2b9e2"/><path d="m339.252 312.195v-62.544c0-5.69 4.612-10.302 10.302-10.302h12.697c5.69 0 10.302 4.612 10.302 10.302v62.544z" fill="#e49824"/><path d="m305.951 312.195v-79.194c0-5.69 4.612-10.302 10.302-10.302h12.697c5.69 0 10.302 4.612 10.302 10.302v79.194z" fill="#dd5790"/><path d="m239.35 312.195v-66.706c0-5.69-4.612-10.302-10.302-10.302h-12.697c-5.69 0-10.302 4.612-10.302 10.302v66.706z" fill="#80b4fb"/><path d="m172.748 312.195v-62.544c0-5.69-4.612-10.302-10.302-10.302h-12.697c-5.69 0-10.302 4.612-10.302 10.302v62.544z" fill="#f9efda"/><path d="m206.049 312.195v-79.194c0-5.69-4.612-10.302-10.302-10.302h-12.697c-5.69 0-10.302 4.612-10.302 10.302v79.194z" fill="#95d6a4"/><path d="m239.35 312.195v-79.194c0-5.69 4.612-10.302 10.302-10.302h12.697c5.69 0 10.302 4.612 10.302 10.302v79.194z" fill="#e49824"/><path d="m92.618 161.301h33.301v22.894h-33.301z" fill="#aa8080" transform="matrix(0 1 -1 0 282.016 63.48)"/><path d="m386.081 161.301h33.301v22.894h-33.301z" fill="#aa8080" transform="matrix(0 1 -1 0 575.48 -229.984)"/><path d="m64.52 20.813v437.073c0 11.495 9.318 20.813 20.813 20.813h341.333c11.495 0 20.813-9.318 20.813-20.813v-437.073c.001-11.495-9.318-20.813-20.812-20.813h-341.334c-11.494 0-20.813 9.318-20.813 20.813zm349.659 291.382h-316.358v-278.894h316.358z" fill="#9d6b6b"/><path d="m426.667 0h-24.976c11.495 0 20.813 9.318 20.813 20.813v437.073c0 11.495-9.318 20.813-20.813 20.813h24.976c11.495 0 20.813-9.318 20.813-20.813v-437.073c0-11.495-9.319-20.813-20.813-20.813z" fill="#8b5e5e"/><path d="m229.048 345.496h-120.925c-5.69 0-10.302 4.612-10.302 10.302v79.299c0 5.69 4.612 10.302 10.302 10.302h120.925c5.69 0 10.302-4.612 10.302-10.302v-79.299c0-5.69-4.613-10.302-10.302-10.302z" fill="#b78e8e"/><path d="m272.65 355.798v79.299c0 5.69 4.612 10.302 10.302 10.302h120.925c5.69 0 10.302-4.612 10.302-10.302v-79.299c0-5.69-4.612-10.302-10.302-10.302h-120.925c-5.689 0-10.302 4.612-10.302 10.302z" fill="#b78e8e"/><g fill="#ffd064"><circle cx="308.033" cy="395.447" r="10.407"/><circle cx="203.967" cy="395.447" r="10.407"/></g></g></svg>